<svg width="523" height="326" viewBox="0 0 523 326" fill="none" xmlns="http://www.w3.org/2000/svg">
<path fill-rule="evenodd" clip-rule="evenodd" d="M415.59 1.81965C421.765 4.90702 424.268 12.4154 421.18 18.5902L322.546 215.859C324.055 262.861 362.632 300.5 410 300.5C458.325 300.5 497.5 261.325 497.5 213C497.5 206.096 503.096 200.5 510 200.5C516.904 200.5 522.5 206.096 522.5 213C522.5 275.132 472.132 325.5 410 325.5C374.659 325.5 343.124 309.204 322.5 283.717V308C322.5 317.665 314.665 325.5 305 325.5C304.833 325.5 304.666 325.497 304.5 325.49C304.334 325.497 304.167 325.5 304 325.5H269.636C265.449 325.5 261.083 324.412 257.389 321.993C253.804 319.646 249.5 314.967 249.5 308V25.5H226.5V213C226.5 275.191 175.849 325.5 113.5 325.5C51.1507 325.5 0.5 275.191 0.5 213C0.5 206.096 6.09644 200.5 13 200.5C19.9036 200.5 25.5 206.096 25.5 213C25.5 261.266 64.8401 300.5 113.5 300.5C162.16 300.5 201.5 261.266 201.5 213V25.5H111.993C105.089 25.5 99.4925 19.9036 99.4925 13C99.4925 6.09643 105.089 0.499992 111.993 0.499992H202H208.975H257C266.665 0.499992 274.5 8.33501 274.5 18V300.5H297.5V213V13C297.5 6.09643 303.096 0.499992 310 0.499992C316.904 0.499992 322.5 6.09643 322.5 13V160.049L398.82 7.40982C401.907 1.23509 409.415 -1.26771 415.59 1.81965Z" fill="url(#paint0_linear_10_20)"/>
<defs>
<linearGradient id="paint0_linear_10_20" x1="278" y1="-3.64339e-07" x2="281" y2="326" gradientUnits="userSpaceOnUse">
<stop stop-color="#FC6767"/>
<stop offset="0.489583" stop-color="#EC008C"/>
<stop offset="1" stop-color="#AF4CAB"/>
</linearGradient>
</defs>
</svg>
